<?xml version="1.0" standalone="no"?>
<!DOCTYPE svg PUBLIC "-//W3C//DTD SVG 20010904//EN"
 "http://www.w3.org/TR/2001/REC-SVG-20010904/DTD/svg10.dtd">
<svg version="1.0" xmlns="http://www.w3.org/2000/svg"
 width="984.000000pt" height="984.000000pt" viewBox="0 0 984.000000 984.000000"
 preserveAspectRatio="xMidYMid meet">
<metadata>
Created by potrace 1.14, written by Peter Selinger 2001-2017
</metadata>
<g transform="translate(0.000000,984.000000) scale(0.100000,-0.100000)"
fill="#000000" stroke="none">
<path d="M990 8722 c0 -4 -15 -14 -32 -21 -41 -18 -143 -114 -175 -165 -25
-38 -25 -39 -8 -92 9 -30 20 -56 25 -59 4 -3 20 -28 35 -57 15 -29 56 -90 91
-136 35 -45 64 -85 64 -87 0 -3 14 -20 31 -38 17 -17 35 -41 40 -52 11 -25 32
-58 41 -65 3 -3 54 -77 111 -165 126 -191 168 -253 183 -269 6 -6 17 -23 24
-36 7 -14 33 -51 57 -83 l44 -57 -29 -38 c-17 -20 -42 -48 -57 -62 -15 -14
-43 -49 -61 -78 -19 -29 -47 -67 -64 -85 -41 -45 -133 -156 -145 -175 -5 -9
-22 -30 -37 -47 -16 -16 -28 -34 -28 -38 0 -11 -55 -80 -120 -150 -30 -33 -62
-69 -70 -81 -8 -13 -32 -40 -53 -62 -20 -21 -66 -82 -102 -135 -36 -53 -72
-102 -80 -109 -8 -7 -15 -17 -15 -23 0 -8 -134 -204 -149 -217 -4 -3 -31 -34
-61 -70 -30 -36 -58 -67 -61 -70 -21 -18 -109 -136 -109 -147 0 -7 -4 -13 -9
-13 -5 0 -16 -15 -26 -32 -17 -34 -76 -124 -94 -145 -6 -7 -11 -19 -11 -28 0
-8 -4 -15 -10 -15 -5 0 -10 -6 -10 -13 0 -18 -24 -67 -32 -67 -5 0 -8 -6 -8
-14 0 -17 -42 -100 -52 -104 -5 -2 -8 -16 -8 -32 0 -16 -5 -30 -11 -32 -12 -4
0 -57 22 -100 5 -10 9 -27 9 -37 0 -11 5 -23 10 -26 6 -3 10 -14 10 -24 0 -22
75 -169 100 -196 10 -11 33 -47 51 -80 27 -50 72 -118 107 -160 4 -5 19 -31
32 -57 13 -27 27 -48 31 -48 3 0 12 -13 19 -30 7 -16 16 -30 21 -30 5 0 11
-11 15 -25 3 -14 10 -25 14 -25 4 0 10 -8 13 -17 9 -27 59 -109 85 -138 13
-15 28 -37 34 -51 6 -13 15 -24 19 -24 4 0 18 -17 30 -37 13 -21 29 -44 36
-51 7 -7 13 -18 13 -24 0 -10 66 -114 87 -136 6 -6 15 -21 18 -32 3 -11 10
-20 15 -20 5 0 11 -8 14 -17 4 -10 20 -34 37 -53 17 -19 56 -73 87 -120 31
-47 62 -91 69 -98 7 -7 13 -18 13 -23 0 -8 59 -103 83 -134 106 -137 235 -341
237 -375 0 -8 14 -35 30 -59 17 -24 30 -54 30 -67 0 -13 5 -26 10 -29 6 -3 10
-17 10 -31 0 -14 12 -48 27 -77 35 -70 46 -117 47 -208 1 -76 0 -78 -48 -148
-26 -39 -51 -71 -55 -71 -4 0 -15 -14 -25 -30 -9 -17 -27 -41 -39 -53 -12 -12
-42 -47 -67 -77 -51 -64 -54 -67 -140 -140 -36 -30 -78 -67 -95 -82 -16 -15
-36 -28 -42 -28 -7 0 -13 -4 -13 -10 0 -5 -4 -10 -10 -10 -10 0 -49 -25 -135
-90 -73 -55 -75 -56 -105 -100 -14 -19 -36 -48 -49 -63 -38 -43 -48 -74 -50
-166 -2 -85 11 -166 34 -211 7 -14 14 -28 15 -32 7 -39 27 -71 49 -80 15 -6
130 -12 266 -14 132 -3 296 -7 365 -10 69 -3 145 -5 170 -4 158 7 1663 -11
1680 -20 11 -6 21 -5 27 1 7 7 17 7 31 -2 16 -10 30 -10 74 0 52 13 157 11
226 -4 21 -5 42 -3 56 5 16 8 48 10 102 5 67 -5 679 -15 913 -15 60 0 71 -2
62 -13 -6 -8 -8 -17 -4 -20 11 -12 88 -8 101 5 9 9 15 9 24 0 19 -19 49 -14
55 8 5 18 14 20 87 21 170 3 361 -2 371 -11 6 -5 17 -5 25 0 24 15 1015 18
1170 3 101 -10 831 -8 878 2 20 5 38 3 47 -5 11 -9 19 -9 28 -2 13 11 63 16
146 13 36 -1 41 -3 32 -15 -9 -11 -8 -15 5 -20 30 -12 97 -6 115 9 9 9 47 19
87 23 100 11 368 7 384 -5 16 -12 643 -11 703 1 22 5 54 19 70 31 17 12 45 30
63 39 40 21 64 72 61 130 -2 39 -23 95 -39 106 -4 3 -14 19 -23 36 -9 17 -34
59 -57 92 -22 34 -40 66 -40 72 0 5 -3 10 -8 10 -4 0 -12 8 -17 19 -38 72 -61
109 -98 159 -24 31 -55 75 -70 97 -16 22 -50 71 -78 110 -27 38 -49 76 -49 82
0 7 -4 13 -10 13 -5 0 -10 4 -10 10 0 5 -20 36 -44 67 -23 32 -49 69 -56 82
-7 14 -17 30 -22 35 -22 27 -95 129 -154 216 -36 52 -87 124 -114 160 -47 62
-60 90 -42 90 11 0 112 135 112 149 0 6 4 11 9 11 5 0 24 23 42 50 18 28 35
50 39 50 3 0 14 13 23 30 10 16 23 35 30 42 7 7 25 31 41 53 16 22 34 45 40
50 6 6 37 49 68 96 32 47 72 101 89 120 17 19 51 63 77 99 25 36 49 67 53 70
3 3 41 55 84 115 42 61 82 115 89 120 6 6 23 26 37 45 15 19 37 46 49 60 12
14 39 45 59 70 20 25 38 47 41 50 3 3 21 28 39 55 35 50 106 142 139 180 10
11 34 40 53 65 18 24 39 50 46 57 6 7 15 22 18 33 3 11 10 20 15 20 5 0 12 9
15 20 3 11 13 26 21 34 23 23 81 101 94 127 7 13 19 28 26 32 8 4 14 12 14 17
0 5 20 38 45 74 25 37 45 71 45 76 0 6 4 10 9 10 11 0 51 66 51 86 0 8 5 14
10 14 6 0 10 18 10 40 0 39 -11 67 -39 103 -8 9 -19 25 -25 36 -6 10 -26 38
-44 62 -18 24 -40 53 -48 64 -8 11 -25 35 -39 54 -14 19 -25 41 -25 48 0 20
-38 70 -183 241 -21 25 -46 57 -55 71 -9 14 -22 30 -29 34 -7 4 -13 13 -13 18
0 6 -9 22 -20 36 -11 14 -20 33 -20 42 0 9 -12 30 -25 46 -76 92 -95 118 -95
131 0 24 -45 86 -104 143 -31 30 -56 59 -56 66 0 7 -9 22 -20 35 -11 13 -20
29 -20 37 0 7 -4 13 -9 13 -5 0 -12 8 -15 18 -4 9 -25 38 -49 65 -57 64 -87
103 -87 115 0 5 -9 17 -20 27 -11 10 -20 26 -20 37 0 10 -4 18 -10 18 -10 0
-36 26 -83 84 -18 21 -49 59 -69 83 -21 24 -38 53 -38 63 0 10 -4 22 -10 25
-5 3 -10 19 -10 36 0 16 -4 29 -8 29 -5 0 -23 46 -41 103 -18 56 -37 110 -42
120 -23 44 -27 54 -38 88 -14 44 -14 96 -1 104 13 8 13 62 0 70 -6 3 -14 -4
-19 -17 l-10 -23 -1 25 c-4 57 2 165 11 181 5 10 9 26 9 36 0 26 55 109 119
179 71 79 154 192 170 230 6 17 27 46 45 65 17 19 43 50 56 69 13 19 27 37 30
40 16 15 111 163 124 195 20 48 20 99 1 115 -9 7 -13 15 -10 18 2 3 -12 24
-33 46 -21 23 -46 55 -56 71 -19 32 -85 86 -113 93 -99 23 -909 29 -1003 8
-57 -13 -127 -11 -146 5 -6 5 -15 4 -22 -3 -9 -9 -18 -8 -37 2 -22 12 -28 12
-35 0 -7 -11 -19 -12 -67 -3 -68 13 -561 15 -607 2 -27 -7 -176 -20 -216 -19
-8 0 -87 3 -174 6 -88 3 -167 9 -177 14 -11 6 -27 6 -42 1 -14 -6 -144 -10
-289 -11 -144 0 -333 -3 -418 -5 -85 -3 -161 -5 -167 -4 -7 0 -33 0 -58 0
-101 -2 -140 -2 -365 4 -129 3 -246 10 -260 14 -36 12 -286 12 -317 0 -33 -12
-441 -13 -474 -1 -29 12 -269 9 -314 -3 -16 -4 -184 -8 -372 -8 -261 0 -346 3
-358 13 -11 9 -18 10 -29 1 -20 -17 -112 -20 -176 -5 -75 17 -775 15 -806 -3
-16 -9 -26 -9 -45 1 -33 16 -108 20 -144 6 -40 -15 -126 -15 -169 1 -28 10
-46 10 -91 0 -67 -15 -300 -16 -339 -2 -32 13 -46 14 -46 3z"/>
</g>
</svg>
